# xmcd CD database file
#
# Track frame offsets:
#	150
#	15648
#	29322
#	46442
#	62749
#	78897
#	92606
#	107191
#	124926
#	141012
#	157940
#	173132
#
# Disc length: 2500 seconds
#
# Revision: 4
# Processed by: cddbd v1.5.2PL0 Copyright (c) Steve Scherf et al.
# Submitted via: CDex 1.51
#
DISCID=9209c20c
DTITLE=Santogold - Santogold
DYEAR=2008
DGENRE=Country
TTITLE0=LES Artistes
TTITLE1=You'll Find a Way
TTITLE2=Shove It
TTITLE3=Say Aha
TTITLE4=Creator
TTITLE5=My Superman
TTITLE6=Lights Out
TTITLE7=Starstruck
TTITLE8=Unstoppable
TTITLE9=I'm A Lady
TTITLE10=Anna
TTITLE11=You'll FInd a Way (remix)
EXTD=YEAR: 2008
EXTT0=
EXTT1=
EXTT2=
EXTT3=
EXTT4=
EXTT5=
EXTT6=
EXTT7=
EXTT8=
EXTT9=
EXTT10=
EXTT11=
PLAYORDER=
